<svg xmlns="http://www.w3.org/2000/svg" viewBox="0 0 1280 640">
  <defs>
    <linearGradient id="bg" x1="0%" y1="0%" x2="100%" y2="100%">
      <stop offset="0%" style="stop-color:#0d1117"/>
      <stop offset="40%" style="stop-color:#161b22"/>
      <stop offset="100%" style="stop-color:#1a1a2e"/>
    </linearGradient>
    <linearGradient id="accent" x1="0%" y1="0%" x2="100%" y2="0%">
      <stop offset="0%" style="stop-color:#7e57c2"/>
      <stop offset="50%" style="stop-color:#9575cd"/>
      <stop offset="100%" style="stop-color:#ffb74d"/>
    </linearGradient>
    <linearGradient id="glow" x1="0%" y1="0%" x2="0%" y2="100%">
      <stop offset="0%" style="stop-color:#7e57c2;stop-opacity:0.3"/>
      <stop offset="100%" style="stop-color:#7e57c2;stop-opacity:0"/>
    </linearGradient>
  </defs>

  <!-- Background -->
  <rect width="1280" height="640" fill="url(#bg)"/>

  <!-- Subtle grid pattern -->
  <g opacity="0.05" stroke="#ffffff" stroke-width="0.5">
    <line x1="0" y1="80" x2="1280" y2="80"/>
    <line x1="0" y1="160" x2="1280" y2="160"/>
    <line x1="0" y1="240" x2="1280" y2="240"/>
    <line x1="0" y1="320" x2="1280" y2="320"/>
    <line x1="0" y1="400" x2="1280" y2="400"/>
    <line x1="0" y1="480" x2="1280" y2="480"/>
    <line x1="0" y1="560" x2="1280" y2="560"/>
    <line x1="160" y1="0" x2="160" y2="640"/>
    <line x1="320" y1="0" x2="320" y2="640"/>
    <line x1="480" y1="0" x2="480" y2="640"/>
    <line x1="640" y1="0" x2="640" y2="640"/>
    <line x1="800" y1="0" x2="800" y2="640"/>
    <line x1="960" y1="0" x2="960" y2="640"/>
    <line x1="1120" y1="0" x2="1120" y2="640"/>
  </g>

  <!-- Glow effect behind title -->
  <ellipse cx="640" cy="220" rx="400" ry="150" fill="url(#glow)"/>

  <!-- Accent line -->
  <rect x="140" y="380" width="1000" height="3" rx="1.5" fill="url(#accent)" opacity="0.7"/>

  <!-- Title -->
  <text x="640" y="200" text-anchor="middle" fill="#ffffff" font-family="system-ui, -apple-system, sans-serif" font-size="72" font-weight="800" letter-spacing="4">AIS</text>

  <!-- Subtitle -->
  <text x="640" y="260" text-anchor="middle" fill="#b0bec5" font-family="system-ui, -apple-system, sans-serif" font-size="28" font-weight="400" letter-spacing="3">AUTONOMOUS INVESTMENT SWARM</text>

  <!-- Tagline -->
  <text x="640" y="340" text-anchor="middle" fill="#9e9e9e" font-family="system-ui, -apple-system, sans-serif" font-size="22" font-weight="300">Risk-gated multi-agent trading with HMAC-signed execution</text>

  <!-- Feature pills -->
  <g font-family="system-ui, -apple-system, sans-serif" font-size="16" font-weight="500">
    <!-- Row of feature tags -->
    <rect x="200" y="430" width="160" height="36" rx="18" fill="#7e57c2" opacity="0.2" stroke="#7e57c2" stroke-width="1"/>
    <text x="280" y="453" text-anchor="middle" fill="#b39ddb">Risk Engine</text>

    <rect x="390" y="430" width="170" height="36" rx="18" fill="#7e57c2" opacity="0.2" stroke="#7e57c2" stroke-width="1"/>
    <text x="475" y="453" text-anchor="middle" fill="#b39ddb">Multi-Agent</text>

    <rect x="590" y="430" width="180" height="36" rx="18" fill="#7e57c2" opacity="0.2" stroke="#7e57c2" stroke-width="1"/>
    <text x="680" y="453" text-anchor="middle" fill="#b39ddb">5 Exchanges</text>

    <rect x="800" y="430" width="150" height="36" rx="18" fill="#7e57c2" opacity="0.2" stroke="#7e57c2" stroke-width="1"/>
    <text x="875" y="453" text-anchor="middle" fill="#b39ddb">Mandates</text>

    <!-- Second row -->
    <rect x="280" y="486" width="180" height="36" rx="18" fill="#ffb74d" opacity="0.15" stroke="#ffb74d" stroke-width="1"/>
    <text x="370" y="509" text-anchor="middle" fill="#ffcc80">Python 3.10+</text>

    <rect x="490" y="486" width="200" height="36" rx="18" fill="#ffb74d" opacity="0.15" stroke="#ffb74d" stroke-width="1"/>
    <text x="590" y="509" text-anchor="middle" fill="#ffcc80">89% Coverage</text>

    <rect x="720" y="486" width="200" height="36" rx="18" fill="#ffb74d" opacity="0.15" stroke="#ffb74d" stroke-width="1"/>
    <text x="820" y="509" text-anchor="middle" fill="#ffcc80">Apache 2.0</text>
  </g>

  <!-- Bottom URL -->
  <text x="640" y="595" text-anchor="middle" fill="#616161" font-family="monospace" font-size="16">github.com/kmshihab7878/Autonomous-Investment-Swarm</text>
</svg>
